Coordinates
version=1
nRows=17
nColumns=38
inDegrees=no

Units are S.I. units (second, meters, Newtons, ...)
If the header above contains a line with 'inDegrees', this indicates whether rotational values are in degrees (yes) or radians (no).

endheader
time	pelvis_tilt	pelvis_list	pelvis_rotation	pelvis_tx	pelvis_ty	pelvis_tz	hip_flexion_r	hip_adduction_r	hip_rotation_r	knee_angle_r	ankle_angle_r	subtalar_angle_r	mtp_angle_r	hip_flexion_l	hip_adduction_l	hip_rotation_l	knee_angle_l	ankle_angle_l	subtalar_angle_l	mtp_angle_l	lumbar_extension	lumbar_bending	lumbar_rotation	arm_flex_r	arm_add_r	arm_rot_r	elbow_flex_r	pro_sup_r	wrist_flex_r	wrist_dev_r	arm_flex_l	arm_add_l	arm_rot_l	elbow_flex_l	pro_sup_l	wrist_flex_l	wrist_dev_l
0	0.0367248	1.52519	-1.57967	0.740799	1.19539	1.04722	0.330379	-0.0167599	-0.0590056	0.157183	-0.199855	0	0	-0.224505	0.0369182	-0.281734	0.343045	-0.0984772	0	0	-0.153545	0.111643	-0.123038	-0.180959	-0.205257	-0.317995	0.461725	0.786401	0	0	0.210693	-0.79313	0.855207	0.839744	1.00482	0	0
0.01	0.0147489	1.53193	-1.55444	0.74021	1.18566	1.046	0.332883	-0.014983	-0.0429397	0.156094	-0.2029	0	0	-0.224553	0.034272	-0.276224	0.348242	-0.0968594	0	0	-0.145575	0.114628	-0.126838	-0.181095	-0.207035	-0.310645	0.462317	0.777955	0	0	0.209706	-0.790979	0.851243	0.837898	1.00796	0	0
0.02	-0.023435	1.53393	-1.51267	0.739596	1.17538	1.04521	0.33366	-0.0126815	-0.03832	0.169935	-0.202805	0	0	-0.23036	0.0304051	-0.274222	0.352656	-0.0967326	0	0	-0.142311	0.118036	-0.130687	-0.182241	-0.208409	-0.3052	0.463705	0.771773	0	0	0.206705	-0.789216	0.845626	0.837559	1.01185	0	0
0.03	-0.0546383	1.53525	-1.47775	0.738839	1.16479	1.04451	0.335567	-0.0101273	-0.0387223	0.194038	-0.199236	0	0	-0.236786	0.0263694	-0.272609	0.357551	-0.0975994	0	0	-0.139858	0.121142	-0.135479	-0.184177	-0.209903	-0.298285	0.466159	0.764568	0	0	0.199816	-0.787984	0.835432	0.839287	1.01465	0	0
0.04	-0.0791719	1.53652	-1.44936	0.738022	1.15401	1.04382	0.33796	-0.00767884	-0.0413023	0.223747	-0.193864	0	0	-0.242799	0.0222381	-0.270918	0.363593	-0.0992445	0	0	-0.137336	0.123816	-0.140819	-0.186309	-0.211049	-0.292274	0.468532	0.757527	0	0	0.190646	-0.78702	0.824459	0.841618	1.01803	0	0
0.05	-0.106451	1.53807	-1.418	0.73717	1.14303	1.04316	0.339951	-0.00485692	-0.0443464	0.256051	-0.188125	0	0	-0.248009	0.0177658	-0.268451	0.370775	-0.101381	0	0	-0.134287	0.126485	-0.146592	-0.188793	-0.212013	-0.287591	0.471037	0.75002	0	0	0.179328	-0.785825	0.812635	0.843862	1.02297	0	0
0.06	-0.143657	1.54023	-1.37663	0.736265	1.13178	1.04247	0.340902	-0.00142568	-0.0468007	0.288263	-0.183163	0	0	-0.251899	0.0127526	-0.265632	0.379505	-0.103939	0	0	-0.130192	0.12953	-0.152816	-0.191932	-0.21322	-0.283434	0.473638	0.743137	0	0	0.165383	-0.784048	0.798958	0.846366	1.02617	0	0
0.07	-0.203225	1.54233	-1.31316	0.73524	1.12027	1.04187	0.339964	0.00282221	-0.0485386	0.315732	-0.180005	0	0	-0.25518	0.00694914	-0.262374	0.389604	-0.107127	0	0	-0.125566	0.133155	-0.159101	-0.194981	-0.214611	-0.279696	0.475051	0.7368	0	0	0.14953	-0.781486	0.784932	0.847965	1.02964	0	0
0.08	-0.316456	1.5438	-1.19617	0.73425	1.10862	1.04157	0.33699	0.00805128	-0.0489874	0.330783	-0.178616	0	0	-0.257563	-4.95965e-05	-0.257784	0.401542	-0.111225	0	0	-0.120862	0.138782	-0.165359	-0.197383	-0.216901	-0.275426	0.475401	0.732078	0	0	0.132903	-0.776604	0.770792	0.847378	1.03153	0	0
0.09	-0.481929	1.54476	-1.02691	0.733389	1.09685	1.04162	0.332566	0.0131719	-0.0476821	0.330856	-0.178776	0	0	-0.258097	-0.00782338	-0.251355	0.416093	-0.116671	0	0	-0.115337	0.146098	-0.17214	-0.19886	-0.220437	-0.269541	0.474007	0.72767	0	0	0.114892	-0.768529	0.755564	0.842952	1.03557	0	0
0.1	-0.678595	1.54534	-0.826834	0.732563	1.08496	1.04193	0.327511	0.018263	-0.0461805	0.324152	-0.184868	0	0	-0.256159	-0.0156233	-0.244394	0.434235	-0.122898	0	0	-0.108743	0.153873	-0.178177	-0.199976	-0.224213	-0.264228	0.47082	0.723523	0	0	0.0968558	-0.757955	0.741283	0.83515	1.04243	0	0
0.11	-0.853432	1.54516	-0.650859	0.731553	1.07318	1.04247	0.322312	0.0232939	-0.0434306	0.321143	-0.200972	0	0	-0.252313	-0.0222853	-0.23934	0.456685	-0.129966	0	0	-0.103489	0.160914	-0.18177	-0.200737	-0.227912	-0.258963	0.467556	0.719688	0	0	0.0784519	-0.746825	0.726344	0.827647	1.04778	0	0
0.12	-0.998216	1.54461	-0.507167	0.730313	1.06157	1.04322	0.317984	0.0278295	-0.0410092	0.325718	-0.217446	0	0	-0.245932	-0.0275934	-0.23527	0.483846	-0.137826	0	0	-0.0997509	0.167089	-0.183125	-0.201033	-0.231508	-0.252875	0.464384	0.716838	0	0	0.0599877	-0.73574	0.711829	0.820647	1.05111	0	0
0.13	-1.10799	1.54379	-0.399765	0.728953	1.05015	1.04417	0.314149	0.0316633	-0.0392218	0.333851	-0.223303	0	0	-0.236963	-0.0317869	-0.229956	0.515709	-0.14695	0	0	-0.0975307	0.172692	-0.182928	-0.200746	-0.234782	-0.247733	0.460855	0.712776	0	0	0.0421852	-0.724487	0.698907	0.813541	1.05304	0	0
0.14	-1.17324	1.54304	-0.338229	0.727437	1.03894	1.04524	0.310123	0.0346985	-0.0361706	0.34353	-0.223333	0	0	-0.225963	-0.0351114	-0.224335	0.551691	-0.158241	0	0	-0.0972807	0.177317	-0.180617	-0.200705	-0.23759	-0.243385	0.458512	0.707902	0	0	0.025662	-0.713709	0.688526	0.806962	1.05387	0	0
0.15	-1.27552	1.54188	-0.241698	0.725931	1.02767	1.04616	0.307148	0.0383714	-0.0308263	0.355773	-0.22164	0	0	-0.211464	-0.0390629	-0.221692	0.591306	-0.171114	0	0	-0.0962849	0.182613	-0.175312	-0.202852	-0.24105	-0.239414	0.458712	0.703362	0	0	0.00957765	-0.702717	0.680779	0.80151	1.05359	0	0
0.16	-1.34645	1.53996	-0.174547	0.724585	1.01659	1.04714	0.301921	0.0417438	-0.0283947	0.367028	-0.216826	0	0	-0.194365	-0.0437134	-0.215535	0.634621	-0.185241	0	0	-0.0964097	0.188463	-0.171003	-0.205424	-0.244233	-0.236516	0.460035	0.697876	0	0	-0.00478688	-0.692268	0.676684	0.796319	1.05143	0	0
